# xmcd
#
# Track frame offsets: 
#        150
#        16275
#        40188
#        55333
#        67258
#        83085
#        96003
#        114640
#        138363
#        153615
#        170455
#        192505
#        215755
#        234918
#        255425
#
# Disc length: 3669 seconds
#
# Revision: 32
# Processed by: cddbd v1.5.2PL0 Copyright (c) Steve Scherf et al.
# Submitted via: ExactAudioCopy v1.0b3
#
DISCID=d00e530f
DTITLE=ゆず - Home 1997-2000
DYEAR=2005
DGENRE=JPop
TTITLE0=地下街
TTITLE1=なにもない
TTITLE2=夏色
TTITLE3=少年
TTITLE4=雨と泪
TTITLE5=月曜日の週末
TTITLE6=からっぽ
TTITLE7=いつか
TTITLE8=始まりの場所
TTITLE9=サヨナラバス
TTITLE10=センチメンタル
TTITLE11=友達の唄
TTITLE12=心のままに
TTITLE13=飛べない鳥
TTITLE14=嗚呼、青春の日々
EXTD=YEAR: 2005
EXTT0=
EXTT1=
EXTT2=
EXTT3=
EXTT4=
EXTT5=
EXTT6=
EXTT7=
EXTT8=
EXTT9=
EXTT10=
EXTT11=
EXTT12=
EXTT13=
EXTT14=
PLAYORDER=
